<svg width="31" height="31" viewBox="0 0 31 31" fill="none" xmlns="http://www.w3.org/2000/svg">
<path d="M27.3377 12.6778H26.3308V12.6259H15.0808V17.6259H22.1452C21.1146 20.5365 18.3452 22.6259 15.0808 22.6259C10.9389 22.6259 7.58081 19.2678 7.58081 15.1259C7.58081 10.984 10.9389 7.62592 15.0808 7.62592C16.9927 7.62592 18.7321 8.34717 20.0564 9.52529L23.5921 5.98967C21.3596 3.90904 18.3733 2.62592 15.0808 2.62592C8.17769 2.62592 2.58081 8.22279 2.58081 15.1259C2.58081 22.029 8.17769 27.6259 15.0808 27.6259C21.9839 27.6259 27.5808 22.029 27.5808 15.1259C27.5808 14.2878 27.4946 13.4697 27.3377 12.6778Z" fill="#FFC107"/>
<path d="M4.02203 9.30779L8.12891 12.3197C9.24016 9.56842 11.9314 7.62592 15.0808 7.62592C16.9927 7.62592 18.732 8.34717 20.0564 9.52529L23.592 5.98967C21.3595 3.90904 18.3733 2.62592 15.0808 2.62592C10.2795 2.62592 6.11578 5.33654 4.02203 9.30779Z" fill="#FF3D00"/>
<path d="M15.0808 27.6259C18.3096 27.6259 21.2433 26.3903 23.4614 24.3809L19.5927 21.1072C18.2955 22.0937 16.7105 22.6272 15.0808 22.6259C11.8296 22.6259 9.06895 20.5528 8.02895 17.6597L3.9527 20.8003C6.02145 24.8484 10.2227 27.6259 15.0808 27.6259Z" fill="#4CAF50"/>
<path d="M27.3377 12.6778H26.3308V12.6259H15.0808V17.6259H22.1452C21.6522 19.0112 20.7642 20.2217 19.5908 21.1078L19.5927 21.1065L23.4614 24.3803C23.1877 24.629 27.5808 21.3759 27.5808 15.1259C27.5808 14.2878 27.4946 13.4697 27.3377 12.6778Z" fill="#1976D2"/>
</svg>
